<svg id="Layer_1" data-name="Layer 1" xmlns="http://www.w3.org/2000/svg" viewBox="0 0 590 343.7"><defs><style>.cls-1{fill:#1c1c1c;opacity:0.23;}.cls-1,.cls-18,.cls-22,.cls-23,.cls-26,.cls-30{isolation:isolate;}.cls-2{fill:#b4aac1;}.cls-3{fill:#d3d3d1;}.cls-11,.cls-15,.cls-22,.cls-23,.cls-30,.cls-4{fill:none;}.cls-11,.cls-15,.cls-30,.cls-4{stroke:#0c1740;stroke-linecap:round;stroke-linejoin:round;}.cls-4{stroke-width:6px;}.cls-18,.cls-5{fill:#0c1740;}.cls-6{opacity:0.63;}.cls-7{fill:#4988e2;}.cls-8{fill:#958ba5;}.cls-9{fill:#364477;}.cls-10{fill:#3e5080;}.cls-11{stroke-width:3px;}.cls-12{fill:#485d8c;}.cls-13{fill:#263866;}.cls-14{fill:#1b2f5b;}.cls-15,.cls-22,.cls-23,.cls-30{stroke-width:2px;}.cls-16{fill:#5873a3;}.cls-17{fill:#1f2f63;}.cls-18{opacity:0.51;}.cls-19{fill:#fff;}.cls-20{opacity:0.49;}.cls-21{fill:#091438;}.cls-22{stroke:#1ac17d;}.cls-22,.cls-23{stroke-miterlimit:10;opacity:0.58;}.cls-23{stroke:#f9232e;}.cls-24{fill:#2ad142;}.cls-25{fill:#b7b7b7;}.cls-26{fill:#192859;opacity:0.72;}.cls-27{fill:#67c18b;}.cls-28{fill:#e5e56a;}.cls-29{fill:#e87060;}.cls-30{opacity:0.28;}</style></defs><path class="cls-1" d="M791,663.7H241a20.06,20.06,0,0,1-20-20h0a20.06,20.06,0,0,1,20-20H791a20.06,20.06,0,0,1,20,20h0A20.06,20.06,0,0,1,791,663.7Z" transform="translate(-221 -320)"/><path class="cls-2" d="M556.5,599h-270a10,10,0,0,1-10-10V391a10,10,0,0,1,10-10h270a10,10,0,0,1,10,10V589A10,10,0,0,1,556.5,599Z" transform="translate(-221 -320)"/><path class="cls-3" d="M282.5,582.9V391a4,4,0,0,1,4-4h270a4,4,0,0,1,4,4V582.9a4,4,0,0,1-4,4h-270A4,4,0,0,1,282.5,582.9Z" transform="translate(-221 -320)"/><path class="cls-4" d="M556.5,599h-270a10,10,0,0,1-10-10V391a10,10,0,0,1,10-10h270a10,10,0,0,1,10,10V589A10,10,0,0,1,556.5,599Z" transform="translate(-221 -320)"/><path class="cls-2" d="M294.5,551.6v-146a8,8,0,0,1,8-8h238a8,8,0,0,1,8,8v146a8,8,0,0,1-8,8h-238A8,8,0,0,1,294.5,551.6Z" transform="translate(-221 -320)"/><path class="cls-5" d="M302.5,555.6a4,4,0,0,1-4-4v-146a4,4,0,0,1,4-4h238a4,4,0,0,1,4,4v146a4,4,0,0,1-4,4Z" transform="translate(-221 -320)"/><g class="cls-6"><path class="cls-7" d="M442.3,476.6c-6.8-3.3-13.7-2-20.5-.4V455.7c6.8-1.6,13.7-2.9,20.5.4Z" transform="translate(-221 -320)"/><path class="cls-7" d="M442.3,500.5c-6.8-3.3-13.7-2-20.5-.4V479.6c6.8-1.6,13.7-2.9,20.5.4Z" transform="translate(-221 -320)"/><path class="cls-7" d="M418.4,500.9c-6.8,1.6-13.7,2.9-20.5-.4V480c6.8,3.3,13.7,2,20.5.4Z" transform="translate(-221 -320)"/><path class="cls-7" d="M418.4,477c-6.8,1.6-13.7,2.9-20.5-.4V456.1c6.8,3.3,13.7,2,20.5.4Z" transform="translate(-221 -320)"/></g><path class="cls-2" d="M440.7,599H402.2c0,13.2-13,24.1-29.9,25.1l-14.3.8A14.25,14.25,0,0,0,344.4,639h154a14.18,14.18,0,0,0-13.6-14.1l-14.3-.8C453.8,623.1,440.7,612.2,440.7,599Z" transform="translate(-221 -320)"/><path class="cls-3" d="M372.4,624.1l-14.3.8A14.25,14.25,0,0,0,344.5,639h154a14.18,14.18,0,0,0-13.6-14.1l-14.3-.8a55.42,55.42,0,0,1-5.7-.7H378A50.38,50.38,0,0,1,372.4,624.1Z" transform="translate(-221 -320)"/><path class="cls-8" d="M446.7,613.5a21.59,21.59,0,0,1-5.9-14.5H402.3a21.59,21.59,0,0,1-5.9,14.5Z" transform="translate(-221 -320)"/><path class="cls-4" d="M440.7,599H402.2c0,13.2-13,24.1-29.9,25.1l-14.3.8A14.25,14.25,0,0,0,344.4,639h154a14.18,14.18,0,0,0-13.6-14.1l-14.3-.8C453.8,623.1,440.7,612.2,440.7,599Z" transform="translate(-221 -320)"/><path class="cls-9" d="M730.9,625h-132a8,8,0,0,1-8-8V331a8,8,0,0,1,8-8h132a8,8,0,0,1,8,8V617A8,8,0,0,1,730.9,625Z" transform="translate(-221 -320)"/><path class="cls-4" d="M730.9,625h-132a8,8,0,0,1-8-8V331a8,8,0,0,1,8-8h132a8,8,0,0,1,8,8V617A8,8,0,0,1,730.9,625Z" transform="translate(-221 -320)"/><path class="cls-10" d="M664.9,615a64.06,64.06,0,0,1-64-64V334a.94.94,0,0,1,1-1h126a.94.94,0,0,1,1,1V551A64.06,64.06,0,0,1,664.9,615Z" transform="translate(-221 -320)"/><path class="cls-9" d="M600.9,355.5v182c0,35.9,28.7,65.1,64,65.1s64-29.2,64-65.1v-182Z" transform="translate(-221 -320)"/><path class="cls-11" d="M664.9,615a64.06,64.06,0,0,1-64-64V334a.94.94,0,0,1,1-1h126a.94.94,0,0,1,1,1V551A64.06,64.06,0,0,1,664.9,615Z" transform="translate(-221 -320)"/><path class="cls-12" d="M664.9,591a64.06,64.06,0,0,1-64-64V334a.94.94,0,0,1,1-1h126a.94.94,0,0,1,1,1V527A64.06,64.06,0,0,1,664.9,591Z" transform="translate(-221 -320)"/><path class="cls-11" d="M664.9,591a64.06,64.06,0,0,1-64-64V334a.94.94,0,0,1,1-1h126a.94.94,0,0,1,1,1V527A64.06,64.06,0,0,1,664.9,591Z" transform="translate(-221 -320)"/><rect class="cls-13" x="387.9" y="305" width="112" height="14"/><rect class="cls-14" x="387.9" y="305" width="112" height="7"/><rect class="cls-4" x="387.9" y="305" width="112" height="14"/><path class="cls-9" d="M716.4,367.3h-103a4.48,4.48,0,0,1-4.5-4.5V346.3a4.48,4.48,0,0,1,4.5-4.5h103a4.48,4.48,0,0,1,4.5,4.5v16.5A4.48,4.48,0,0,1,716.4,367.3Z" transform="translate(-221 -320)"/><path class="cls-15" d="M716.4,367.3h-103a4.48,4.48,0,0,1-4.5-4.5V346.3a4.48,4.48,0,0,1,4.5-4.5h103a4.48,4.48,0,0,1,4.5,4.5v16.5A4.48,4.48,0,0,1,716.4,367.3Z" transform="translate(-221 -320)"/><path class="cls-9" d="M716.4,404H646.8a4.48,4.48,0,0,1-4.5-4.5V388.1a4.48,4.48,0,0,1,4.5-4.5h69.6a4.48,4.48,0,0,1,4.5,4.5v11.4A4.48,4.48,0,0,1,716.4,404Z" transform="translate(-221 -320)"/><path class="cls-15" d="M716.4,404H646.8a4.48,4.48,0,0,1-4.5-4.5V388.1a4.48,4.48,0,0,1,4.5-4.5h69.6a4.48,4.48,0,0,1,4.5,4.5v11.4A4.48,4.48,0,0,1,716.4,404Z" transform="translate(-221 -320)"/><circle class="cls-16" cx="445.7" cy="217.6" r="17.8"/><path class="cls-9" d="M719.1,460.5H610.7a1.79,1.79,0,0,1-1.8-1.8V434.3a1.79,1.79,0,0,1,1.8-1.8H719.1a1.79,1.79,0,0,1,1.8,1.8v24.4A1.79,1.79,0,0,1,719.1,460.5Z" transform="translate(-221 -320)"/><circle class="cls-5" cx="443.9" cy="168.6" r="10.3"/><circle class="cls-17" cx="443.9" cy="168.6" r="9.5"/><path class="cls-5" d="M707.1,450H688.3a1.11,1.11,0,0,1-1.1-1.1v-4.8a1.11,1.11,0,0,1,1.1-1.1h18.8a1.11,1.11,0,0,1,1.1,1.1v4.8A1.11,1.11,0,0,1,707.1,450Z" transform="translate(-221 -320)"/><path class="cls-12" d="M688.2,446.4v-2.3c0-.1,0-.1.1-.1h18.8c.1,0,.1,0,.1.1v2.3c0,.1,0,.1-.1.1l-18.9-.1C688.3,446.5,688.2,446.5,688.2,446.4Z" transform="translate(-221 -320)"/><path class="cls-5" d="M681.4,450H662.6a1.11,1.11,0,0,1-1.1-1.1v-4.8a1.11,1.11,0,0,1,1.1-1.1h18.8a1.11,1.11,0,0,1,1.1,1.1v4.8A1.11,1.11,0,0,1,681.4,450Z" transform="translate(-221 -320)"/><path class="cls-12" d="M662.5,446.4v-2.3c0-.1,0-.1.1-.1h18.8c.1,0,.1,0,.1.1v2.3c0,.1,0,.1-.1.1l-18.9-.1Z" transform="translate(-221 -320)"/><circle class="cls-18" cx="309.1" cy="252.8" r="6"/><circle class="cls-19" cx="309.1" cy="252.8" r="5.6"/><circle class="cls-18" cx="295.2" cy="252.8" r="3"/><circle class="cls-19" cx="295.2" cy="252.8" r="2.8"/><g class="cls-20"><rect class="cls-5" x="418" y="570.51" width="2.9" height="11.5" transform="translate(-505.62 145.38) rotate(-45)"/><rect class="cls-5" x="416.6" y="568.71" width="5.7" height="2.9" transform="translate(-501.31 143.59) rotate(-45)"/><rect class="cls-5" x="422.7" y="574.8" width="5.7" height="2.9" transform="translate(-503.83 149.69) rotate(-45)"/><rect class="cls-5" x="419.65" y="571.83" width="5.7" height="2.9" transform="translate(-502.62 146.66) rotate(-45)"/></g><rect class="cls-12" x="661.92" y="532.46" width="4" height="16" transform="translate(-408.7 307.76) rotate(-45)"/><rect class="cls-12" x="659.91" y="529.96" width="8" height="4" transform="translate(-402.7 305.26) rotate(-45)"/><rect class="cls-12" x="668.34" y="538.52" width="8" height="4" transform="translate(-406.28 313.73) rotate(-45)"/><rect class="cls-12" x="664.09" y="534.2" width="8" height="4" transform="translate(-404.48 309.46) rotate(-45)"/><path class="cls-5" d="M712.8,396.8H649a1.22,1.22,0,0,1-1.2-1.2v-4.3a1.22,1.22,0,0,1,1.2-1.2h63.8a1.22,1.22,0,0,1,1.2,1.2v4.3A1.1,1.1,0,0,1,712.8,396.8Z" transform="translate(-221 -320)"/><path class="cls-5" d="M701.2,398.9H686.4a5.55,5.55,0,0,1-5.5-5.5h0a5.55,5.55,0,0,1,5.5-5.5h14.8a5.55,5.55,0,0,1,5.5,5.5h0A5.48,5.48,0,0,1,701.2,398.9Z" transform="translate(-221 -320)"/><path class="cls-21" d="M649.7,393.4h0a1.37,1.37,0,0,1,1.4-1.4h59.5a1.37,1.37,0,0,1,1.4,1.4h0a1.37,1.37,0,0,1-1.4,1.4H651.1A1.43,1.43,0,0,1,649.7,393.4Z" transform="translate(-221 -320)"/><circle class="cls-5" cx="429.6" cy="126.5" r="3.5"/><circle class="cls-5" cx="415.4" cy="126.5" r="3.5"/><circle class="cls-22" cx="429.6" cy="126.5" r="3.5"/><circle class="cls-23" cx="415.4" cy="126.5" r="3.5"/><path class="cls-15" d="M660.7,483.6a6.48,6.48,0,1,0,10.7,4.9,6.38,6.38,0,0,0-2.3-4.9" transform="translate(-221 -320)"/><line class="cls-15" x1="443.9" y1="161" x2="443.9" y2="168.6"/><path class="cls-5" d="M715.6,358.3H614.4a1.37,1.37,0,0,1-1.4-1.4v-9.5a1.37,1.37,0,0,1,1.4-1.4H715.6a1.37,1.37,0,0,1,1.4,1.4v9.5A1.37,1.37,0,0,1,715.6,358.3Z" transform="translate(-221 -320)"/><path class="cls-5" d="M715.4,364.2h-6.6a.86.86,0,0,1-.8-.8v-1.1a.86.86,0,0,1,.8-.8h6.6a.86.86,0,0,1,.8.8v1.1A.86.86,0,0,1,715.4,364.2Z" transform="translate(-221 -320)"/><path class="cls-24" d="M703.5,364.2h0a1.37,1.37,0,0,1-1.4-1.4h0a1.37,1.37,0,0,1,1.4-1.4h0a1.37,1.37,0,0,1,1.4,1.4h0A1.37,1.37,0,0,1,703.5,364.2Z" transform="translate(-221 -320)"/><circle class="cls-5" cx="461.1" cy="159.7" r="2.3"/><circle class="cls-17" cx="461.1" cy="159.7" r="1.7"/><path class="cls-25" d="M583,635.4H479V627a5.34,5.34,0,0,1,5.3-5.3h93.4A5.34,5.34,0,0,1,583,627Z" transform="translate(-221 -320)"/><path class="cls-25" d="M413.1,635.4h-20V627a5.34,5.34,0,0,1,5.3-5.3h9.4a5.34,5.34,0,0,1,5.3,5.3v8.4Z" transform="translate(-221 -320)"/><path class="cls-25" d="M441.1,635.4h-20V627a5.34,5.34,0,0,1,5.3-5.3h9.4a5.34,5.34,0,0,1,5.3,5.3v8.4Z" transform="translate(-221 -320)"/><path class="cls-25" d="M610.9,635.4h-20V627a5.34,5.34,0,0,1,5.3-5.3h9.4a5.34,5.34,0,0,1,5.3,5.3Z" transform="translate(-221 -320)"/><path class="cls-25" d="M639.8,635.4h-20V627a5.34,5.34,0,0,1,5.3-5.3h9.4a5.34,5.34,0,0,1,5.3,5.3Z" transform="translate(-221 -320)"/><path class="cls-25" d="M667.7,635.4h-20V627a5.34,5.34,0,0,1,5.3-5.3h9.4a5.34,5.34,0,0,1,5.3,5.3Z" transform="translate(-221 -320)"/><path class="cls-3" d="M674.5,651.9H387a8.28,8.28,0,0,1-8.3-8.3h0a8.28,8.28,0,0,1,8.3-8.3H674.5a8.28,8.28,0,0,1,8.3,8.3h0A8.41,8.41,0,0,1,674.5,651.9Z" transform="translate(-221 -320)"/><path class="cls-4" d="M583,635.4H479V627a5.34,5.34,0,0,1,5.3-5.3h93.4A5.34,5.34,0,0,1,583,627Z" transform="translate(-221 -320)"/><path class="cls-4" d="M413.1,635.4h-20V627a5.34,5.34,0,0,1,5.3-5.3h9.4a5.34,5.34,0,0,1,5.3,5.3v8.4Z" transform="translate(-221 -320)"/><path class="cls-4" d="M441.1,635.4h-20V627a5.34,5.34,0,0,1,5.3-5.3h9.4a5.34,5.34,0,0,1,5.3,5.3v8.4Z" transform="translate(-221 -320)"/><path class="cls-25" d="M470.1,635.4h-20V627a5.34,5.34,0,0,1,5.3-5.3h9.4a5.34,5.34,0,0,1,5.3,5.3v8.4Z" transform="translate(-221 -320)"/><path class="cls-4" d="M470.1,635.4h-20V627a5.34,5.34,0,0,1,5.3-5.3h9.4a5.34,5.34,0,0,1,5.3,5.3v8.4Z" transform="translate(-221 -320)"/><path class="cls-4" d="M610.9,635.4h-20V627a5.34,5.34,0,0,1,5.3-5.3h9.4a5.34,5.34,0,0,1,5.3,5.3Z" transform="translate(-221 -320)"/><path class="cls-4" d="M639.8,635.4h-20V627a5.34,5.34,0,0,1,5.3-5.3h9.4a5.34,5.34,0,0,1,5.3,5.3Z" transform="translate(-221 -320)"/><path class="cls-4" d="M667.7,635.4h-20V627a5.34,5.34,0,0,1,5.3-5.3h9.4a5.34,5.34,0,0,1,5.3,5.3Z" transform="translate(-221 -320)"/><path class="cls-4" d="M674.5,651.9H387a8.28,8.28,0,0,1-8.3-8.3h0a8.28,8.28,0,0,1,8.3-8.3H674.5a8.28,8.28,0,0,1,8.3,8.3h0A8.41,8.41,0,0,1,674.5,651.9Z" transform="translate(-221 -320)"/><path class="cls-3" d="M696.5,651.9a21.9,21.9,0,0,1,43.8,0Z" transform="translate(-221 -320)"/><path class="cls-4" d="M696.5,651.9a21.9,21.9,0,0,1,43.8,0Z" transform="translate(-221 -320)"/><line class="cls-4" x1="497.5" y1="312.1" x2="497.5" y2="318.7"/><polygon class="cls-26" points="156.7 235.6 235.1 81.6 197.3 81.6 118.9 235.6 156.7 235.6"/><polygon class="cls-26" points="203.6 235.6 282.1 81.6 263.2 81.6 184.8 235.6 203.6 235.6"/><path class="cls-27" d="M620.7,476a6.36,6.36,0,0,0-4.3-.1v-4.3a6.36,6.36,0,0,1,4.3.1Z" transform="translate(-221 -320)"/><path class="cls-28" d="M620.7,481a6.36,6.36,0,0,0-4.3-.1v-4.3a6.36,6.36,0,0,1,4.3.1Z" transform="translate(-221 -320)"/><path class="cls-7" d="M615.6,481.1a6.36,6.36,0,0,1-4.3-.1v-4.3a6.36,6.36,0,0,0,4.3.1Z" transform="translate(-221 -320)"/><path class="cls-29" d="M615.6,476.1a6.36,6.36,0,0,1-4.3-.1v-4.3a6.36,6.36,0,0,0,4.3.1Z" transform="translate(-221 -320)"/><line class="cls-30" x1="402.7" y1="154.5" x2="414.6" y2="154.5"/><line class="cls-30" x1="402.7" y1="158.1" x2="411.9" y2="158.1"/></svg>